<mxfile host="app.diagrams.net" modified="2023-08-02T14:00:18.027Z" agent="Mozilla/5.0 (Windows NT 10.0; Win64; x64) AppleWebKit/537.36 (KHTML, like Gecko) Chrome/114.0.0.0 Safari/537.36 Edg/114.0.1823.51" etag="QOzXRCoLX3a_sYrkyAs0" version="21.6.5" type="github">
  <diagram name="Page-1" id="8VfTiPoDJ_yp6RqWG1UE">
    <mxGraphModel dx="1050" dy="549" grid="1" gridSize="10" guides="1" tooltips="1" connect="1" arrows="1" fold="1" page="1" pageScale="1" pageWidth="827" pageHeight="1169" math="0" shadow="0">
      <root>
        <mxCell id="0" />
        <mxCell id="1" parent="0" />
        <mxCell id="kCI0wJCgzJsEVdIwSChr-2" value="1st Approver" style="swimlane;html=1;startSize=20;fontStyle=0;collapsible=0;horizontal=0;swimlaneLine=1;swimlaneFillColor=#ffffff;strokeWidth=2;whiteSpace=wrap;" vertex="1" parent="1">
          <mxGeometry x="60" y="60" width="470" height="120" as="geometry" />
        </mxCell>
        <mxCell id="kCI0wJCgzJsEVdIwSChr-10" style="edgeStyle=orthogonalEdgeStyle;rounded=0;orthogonalLoop=1;jettySize=auto;html=1;exitX=1;exitY=0.5;exitDx=0;exitDy=0;exitPerimeter=0;entryX=0;entryY=0.5;entryDx=0;entryDy=0;entryPerimeter=0;" edge="1" parent="kCI0wJCgzJsEVdIwSChr-2" source="kCI0wJCgzJsEVdIwSChr-8" target="kCI0wJCgzJsEVdIwSChr-9">
          <mxGeometry relative="1" as="geometry" />
        </mxCell>
        <mxCell id="kCI0wJCgzJsEVdIwSChr-8" value="" style="points=[[0.145,0.145,0],[0.5,0,0],[0.855,0.145,0],[1,0.5,0],[0.855,0.855,0],[0.5,1,0],[0.145,0.855,0],[0,0.5,0]];shape=mxgraph.bpmn.event;html=1;verticalLabelPosition=bottom;labelBackgroundColor=#ffffff;verticalAlign=top;align=center;perimeter=ellipsePerimeter;outlineConnect=0;aspect=fixed;outline=standard;symbol=message;" vertex="1" parent="kCI0wJCgzJsEVdIwSChr-2">
          <mxGeometry x="40" y="35" width="50" height="50" as="geometry" />
        </mxCell>
        <mxCell id="kCI0wJCgzJsEVdIwSChr-12" style="edgeStyle=orthogonalEdgeStyle;rounded=0;orthogonalLoop=1;jettySize=auto;html=1;exitX=1;exitY=0.5;exitDx=0;exitDy=0;exitPerimeter=0;entryX=0;entryY=0.5;entryDx=0;entryDy=0;entryPerimeter=0;" edge="1" parent="kCI0wJCgzJsEVdIwSChr-2" source="kCI0wJCgzJsEVdIwSChr-9" target="kCI0wJCgzJsEVdIwSChr-11">
          <mxGeometry relative="1" as="geometry" />
        </mxCell>
        <mxCell id="kCI0wJCgzJsEVdIwSChr-9" value="Evaluate request" style="points=[[0.25,0,0],[0.5,0,0],[0.75,0,0],[1,0.25,0],[1,0.5,0],[1,0.75,0],[0.75,1,0],[0.5,1,0],[0.25,1,0],[0,0.75,0],[0,0.5,0],[0,0.25,0]];shape=mxgraph.bpmn.task;whiteSpace=wrap;rectStyle=rounded;size=10;html=1;container=1;expand=0;collapsible=0;taskMarker=manual;" vertex="1" parent="kCI0wJCgzJsEVdIwSChr-2">
          <mxGeometry x="120" y="20" width="120" height="80" as="geometry" />
        </mxCell>
        <mxCell id="kCI0wJCgzJsEVdIwSChr-13" style="edgeStyle=orthogonalEdgeStyle;rounded=0;orthogonalLoop=1;jettySize=auto;html=1;exitX=1;exitY=0.5;exitDx=0;exitDy=0;exitPerimeter=0;entryX=0;entryY=0.5;entryDx=0;entryDy=0;entryPerimeter=0;" edge="1" parent="kCI0wJCgzJsEVdIwSChr-2" source="kCI0wJCgzJsEVdIwSChr-11" target="kCI0wJCgzJsEVdIwSChr-14">
          <mxGeometry relative="1" as="geometry">
            <mxPoint x="410" y="45" as="targetPoint" />
          </mxGeometry>
        </mxCell>
        <mxCell id="kCI0wJCgzJsEVdIwSChr-11" value="Document &amp;amp; submit decision" style="points=[[0.25,0,0],[0.5,0,0],[0.75,0,0],[1,0.25,0],[1,0.5,0],[1,0.75,0],[0.75,1,0],[0.5,1,0],[0.25,1,0],[0,0.75,0],[0,0.5,0],[0,0.25,0]];shape=mxgraph.bpmn.task;whiteSpace=wrap;rectStyle=rounded;size=10;html=1;container=1;expand=0;collapsible=0;taskMarker=manual;" vertex="1" parent="kCI0wJCgzJsEVdIwSChr-2">
          <mxGeometry x="260" y="20" width="120" height="80" as="geometry" />
        </mxCell>
        <mxCell id="kCI0wJCgzJsEVdIwSChr-14" value="" style="points=[[0.145,0.145,0],[0.5,0,0],[0.855,0.145,0],[1,0.5,0],[0.855,0.855,0],[0.5,1,0],[0.145,0.855,0],[0,0.5,0]];shape=mxgraph.bpmn.event;html=1;verticalLabelPosition=bottom;labelBackgroundColor=#ffffff;verticalAlign=top;align=center;perimeter=ellipsePerimeter;outlineConnect=0;aspect=fixed;outline=end;symbol=terminate2;" vertex="1" parent="kCI0wJCgzJsEVdIwSChr-2">
          <mxGeometry x="410" y="35" width="50" height="50" as="geometry" />
        </mxCell>
        <mxCell id="kCI0wJCgzJsEVdIwSChr-15" value="Task completed" style="text;html=1;strokeColor=none;fillColor=none;align=center;verticalAlign=middle;whiteSpace=wrap;rounded=0;" vertex="1" parent="kCI0wJCgzJsEVdIwSChr-2">
          <mxGeometry x="395" y="85" width="80" height="30" as="geometry" />
        </mxCell>
        <mxCell id="kCI0wJCgzJsEVdIwSChr-51" value="Approval requested" style="text;html=1;strokeColor=none;fillColor=none;align=center;verticalAlign=middle;whiteSpace=wrap;rounded=0;" vertex="1" parent="kCI0wJCgzJsEVdIwSChr-2">
          <mxGeometry x="30" width="80" height="30" as="geometry" />
        </mxCell>
        <mxCell id="kCI0wJCgzJsEVdIwSChr-3" value="Process Engine" style="swimlane;html=1;startSize=20;fontStyle=0;collapsible=0;horizontal=0;swimlaneLine=1;swimlaneFillColor=#ffffff;strokeWidth=2;whiteSpace=wrap;" vertex="1" parent="1">
          <mxGeometry x="40" y="230" width="710" height="210" as="geometry" />
        </mxCell>
        <mxCell id="kCI0wJCgzJsEVdIwSChr-18" style="edgeStyle=orthogonalEdgeStyle;rounded=0;orthogonalLoop=1;jettySize=auto;html=1;exitX=1;exitY=0.5;exitDx=0;exitDy=0;exitPerimeter=0;entryX=0;entryY=0.5;entryDx=0;entryDy=0;entryPerimeter=0;" edge="1" parent="kCI0wJCgzJsEVdIwSChr-3" source="kCI0wJCgzJsEVdIwSChr-7" target="kCI0wJCgzJsEVdIwSChr-17">
          <mxGeometry relative="1" as="geometry" />
        </mxCell>
        <mxCell id="kCI0wJCgzJsEVdIwSChr-7" value="" style="points=[[0.145,0.145,0],[0.5,0,0],[0.855,0.145,0],[1,0.5,0],[0.855,0.855,0],[0.5,1,0],[0.145,0.855,0],[0,0.5,0]];shape=mxgraph.bpmn.event;html=1;verticalLabelPosition=bottom;labelBackgroundColor=#ffffff;verticalAlign=top;align=center;perimeter=ellipsePerimeter;outlineConnect=0;aspect=fixed;outline=standard;symbol=general;" vertex="1" parent="kCI0wJCgzJsEVdIwSChr-3">
          <mxGeometry x="30" y="50" width="50" height="50" as="geometry" />
        </mxCell>
        <mxCell id="kCI0wJCgzJsEVdIwSChr-27" style="edgeStyle=orthogonalEdgeStyle;rounded=0;orthogonalLoop=1;jettySize=auto;html=1;exitX=1;exitY=0.5;exitDx=0;exitDy=0;exitPerimeter=0;" edge="1" parent="kCI0wJCgzJsEVdIwSChr-3" source="kCI0wJCgzJsEVdIwSChr-17">
          <mxGeometry relative="1" as="geometry">
            <mxPoint x="250" y="75" as="targetPoint" />
          </mxGeometry>
        </mxCell>
        <mxCell id="kCI0wJCgzJsEVdIwSChr-17" value="Decide on approval (1st stage)" style="points=[[0.25,0,0],[0.5,0,0],[0.75,0,0],[1,0.25,0],[1,0.5,0],[1,0.75,0],[0.75,1,0],[0.5,1,0],[0.25,1,0],[0,0.75,0],[0,0.5,0],[0,0.25,0]];shape=mxgraph.bpmn.task;whiteSpace=wrap;rectStyle=rounded;size=10;html=1;container=1;expand=0;collapsible=0;taskMarker=user;" vertex="1" parent="kCI0wJCgzJsEVdIwSChr-3">
          <mxGeometry x="100" y="35" width="120" height="80" as="geometry" />
        </mxCell>
        <mxCell id="kCI0wJCgzJsEVdIwSChr-19" value="Approval requested" style="text;html=1;strokeColor=none;fillColor=none;align=center;verticalAlign=middle;whiteSpace=wrap;rounded=0;" vertex="1" parent="kCI0wJCgzJsEVdIwSChr-3">
          <mxGeometry x="20" y="100" width="80" height="30" as="geometry" />
        </mxCell>
        <mxCell id="kCI0wJCgzJsEVdIwSChr-30" style="edgeStyle=orthogonalEdgeStyle;rounded=0;orthogonalLoop=1;jettySize=auto;html=1;exitX=1;exitY=0.5;exitDx=0;exitDy=0;exitPerimeter=0;entryX=0;entryY=0.5;entryDx=0;entryDy=0;entryPerimeter=0;" edge="1" parent="kCI0wJCgzJsEVdIwSChr-3" source="kCI0wJCgzJsEVdIwSChr-25" target="kCI0wJCgzJsEVdIwSChr-28">
          <mxGeometry relative="1" as="geometry" />
        </mxCell>
        <mxCell id="kCI0wJCgzJsEVdIwSChr-33" style="edgeStyle=orthogonalEdgeStyle;rounded=0;orthogonalLoop=1;jettySize=auto;html=1;exitX=0.5;exitY=1;exitDx=0;exitDy=0;exitPerimeter=0;entryX=0;entryY=0.5;entryDx=0;entryDy=0;entryPerimeter=0;" edge="1" parent="kCI0wJCgzJsEVdIwSChr-3" source="kCI0wJCgzJsEVdIwSChr-25" target="kCI0wJCgzJsEVdIwSChr-32">
          <mxGeometry relative="1" as="geometry" />
        </mxCell>
        <mxCell id="kCI0wJCgzJsEVdIwSChr-25" value="" style="points=[[0.25,0.25,0],[0.5,0,0],[0.75,0.25,0],[1,0.5,0],[0.75,0.75,0],[0.5,1,0],[0.25,0.75,0],[0,0.5,0]];shape=mxgraph.bpmn.gateway2;html=1;verticalLabelPosition=bottom;labelBackgroundColor=#ffffff;verticalAlign=top;align=center;perimeter=rhombusPerimeter;outlineConnect=0;outline=none;symbol=none;gwType=exclusive;" vertex="1" parent="kCI0wJCgzJsEVdIwSChr-3">
          <mxGeometry x="250" y="50" width="50" height="50" as="geometry" />
        </mxCell>
        <mxCell id="kCI0wJCgzJsEVdIwSChr-38" style="edgeStyle=orthogonalEdgeStyle;rounded=0;orthogonalLoop=1;jettySize=auto;html=1;exitX=1;exitY=0.5;exitDx=0;exitDy=0;exitPerimeter=0;entryX=0;entryY=0.5;entryDx=0;entryDy=0;entryPerimeter=0;" edge="1" parent="kCI0wJCgzJsEVdIwSChr-3" source="kCI0wJCgzJsEVdIwSChr-28" target="kCI0wJCgzJsEVdIwSChr-37">
          <mxGeometry relative="1" as="geometry" />
        </mxCell>
        <mxCell id="kCI0wJCgzJsEVdIwSChr-28" value="Decide on approval (2nd stage)" style="points=[[0.25,0,0],[0.5,0,0],[0.75,0,0],[1,0.25,0],[1,0.5,0],[1,0.75,0],[0.75,1,0],[0.5,1,0],[0.25,1,0],[0,0.75,0],[0,0.5,0],[0,0.25,0]];shape=mxgraph.bpmn.task;whiteSpace=wrap;rectStyle=rounded;size=10;html=1;container=1;expand=0;collapsible=0;taskMarker=user;" vertex="1" parent="kCI0wJCgzJsEVdIwSChr-3">
          <mxGeometry x="360" y="35" width="110" height="80" as="geometry" />
        </mxCell>
        <mxCell id="kCI0wJCgzJsEVdIwSChr-31" value="yes" style="text;html=1;strokeColor=none;fillColor=none;align=center;verticalAlign=middle;whiteSpace=wrap;rounded=0;" vertex="1" parent="kCI0wJCgzJsEVdIwSChr-3">
          <mxGeometry x="280" y="50" width="80" height="30" as="geometry" />
        </mxCell>
        <mxCell id="kCI0wJCgzJsEVdIwSChr-36" style="edgeStyle=orthogonalEdgeStyle;rounded=0;orthogonalLoop=1;jettySize=auto;html=1;exitX=0.855;exitY=0.145;exitDx=0;exitDy=0;exitPerimeter=0;" edge="1" parent="kCI0wJCgzJsEVdIwSChr-3" source="kCI0wJCgzJsEVdIwSChr-32">
          <mxGeometry relative="1" as="geometry">
            <mxPoint x="347" y="140" as="targetPoint" />
          </mxGeometry>
        </mxCell>
        <mxCell id="kCI0wJCgzJsEVdIwSChr-32" value="" style="points=[[0.145,0.145,0],[0.5,0,0],[0.855,0.145,0],[1,0.5,0],[0.855,0.855,0],[0.5,1,0],[0.145,0.855,0],[0,0.5,0]];shape=mxgraph.bpmn.event;html=1;verticalLabelPosition=bottom;labelBackgroundColor=#ffffff;verticalAlign=top;align=center;perimeter=ellipsePerimeter;outlineConnect=0;aspect=fixed;outline=end;symbol=terminate2;" vertex="1" parent="kCI0wJCgzJsEVdIwSChr-3">
          <mxGeometry x="300" y="120" width="50" height="50" as="geometry" />
        </mxCell>
        <mxCell id="kCI0wJCgzJsEVdIwSChr-34" value="no" style="text;html=1;strokeColor=none;fillColor=none;align=center;verticalAlign=middle;whiteSpace=wrap;rounded=0;" vertex="1" parent="kCI0wJCgzJsEVdIwSChr-3">
          <mxGeometry x="250" y="115" width="80" height="30" as="geometry" />
        </mxCell>
        <mxCell id="kCI0wJCgzJsEVdIwSChr-35" value="reqyest rejected (1st stage)" style="text;html=1;strokeColor=none;fillColor=none;align=center;verticalAlign=middle;whiteSpace=wrap;rounded=0;" vertex="1" parent="kCI0wJCgzJsEVdIwSChr-3">
          <mxGeometry x="280" y="180" width="90" height="20" as="geometry" />
        </mxCell>
        <mxCell id="kCI0wJCgzJsEVdIwSChr-40" style="edgeStyle=orthogonalEdgeStyle;rounded=0;orthogonalLoop=1;jettySize=auto;html=1;exitX=1;exitY=0.5;exitDx=0;exitDy=0;exitPerimeter=0;entryX=0;entryY=0.5;entryDx=0;entryDy=0;entryPerimeter=0;" edge="1" parent="kCI0wJCgzJsEVdIwSChr-3" source="kCI0wJCgzJsEVdIwSChr-37" target="kCI0wJCgzJsEVdIwSChr-39">
          <mxGeometry relative="1" as="geometry" />
        </mxCell>
        <mxCell id="kCI0wJCgzJsEVdIwSChr-43" style="edgeStyle=orthogonalEdgeStyle;rounded=0;orthogonalLoop=1;jettySize=auto;html=1;exitX=0.5;exitY=1;exitDx=0;exitDy=0;exitPerimeter=0;entryX=0;entryY=0.5;entryDx=0;entryDy=0;entryPerimeter=0;" edge="1" parent="kCI0wJCgzJsEVdIwSChr-3" source="kCI0wJCgzJsEVdIwSChr-37" target="kCI0wJCgzJsEVdIwSChr-42">
          <mxGeometry relative="1" as="geometry" />
        </mxCell>
        <mxCell id="kCI0wJCgzJsEVdIwSChr-37" value="" style="points=[[0.25,0.25,0],[0.5,0,0],[0.75,0.25,0],[1,0.5,0],[0.75,0.75,0],[0.5,1,0],[0.25,0.75,0],[0,0.5,0]];shape=mxgraph.bpmn.gateway2;html=1;verticalLabelPosition=bottom;labelBackgroundColor=#ffffff;verticalAlign=top;align=center;perimeter=rhombusPerimeter;outlineConnect=0;outline=none;symbol=none;gwType=exclusive;" vertex="1" parent="kCI0wJCgzJsEVdIwSChr-3">
          <mxGeometry x="510" y="50" width="50" height="50" as="geometry" />
        </mxCell>
        <mxCell id="kCI0wJCgzJsEVdIwSChr-39" value="" style="points=[[0.145,0.145,0],[0.5,0,0],[0.855,0.145,0],[1,0.5,0],[0.855,0.855,0],[0.5,1,0],[0.145,0.855,0],[0,0.5,0]];shape=mxgraph.bpmn.event;html=1;verticalLabelPosition=bottom;labelBackgroundColor=#ffffff;verticalAlign=top;align=center;perimeter=ellipsePerimeter;outlineConnect=0;aspect=fixed;outline=end;symbol=terminate2;" vertex="1" parent="kCI0wJCgzJsEVdIwSChr-3">
          <mxGeometry x="615" y="50" width="50" height="50" as="geometry" />
        </mxCell>
        <mxCell id="kCI0wJCgzJsEVdIwSChr-41" value="Request approved" style="text;html=1;strokeColor=none;fillColor=none;align=center;verticalAlign=middle;whiteSpace=wrap;rounded=0;" vertex="1" parent="kCI0wJCgzJsEVdIwSChr-3">
          <mxGeometry x="610" y="100" width="70" height="30" as="geometry" />
        </mxCell>
        <mxCell id="kCI0wJCgzJsEVdIwSChr-42" value="" style="points=[[0.145,0.145,0],[0.5,0,0],[0.855,0.145,0],[1,0.5,0],[0.855,0.855,0],[0.5,1,0],[0.145,0.855,0],[0,0.5,0]];shape=mxgraph.bpmn.event;html=1;verticalLabelPosition=bottom;labelBackgroundColor=#ffffff;verticalAlign=top;align=center;perimeter=ellipsePerimeter;outlineConnect=0;aspect=fixed;outline=end;symbol=terminate2;" vertex="1" parent="kCI0wJCgzJsEVdIwSChr-3">
          <mxGeometry x="565" y="115" width="50" height="50" as="geometry" />
        </mxCell>
        <mxCell id="kCI0wJCgzJsEVdIwSChr-44" value="reqyest rejected (2nd stage)" style="text;html=1;strokeColor=none;fillColor=none;align=center;verticalAlign=middle;whiteSpace=wrap;rounded=0;" vertex="1" parent="kCI0wJCgzJsEVdIwSChr-3">
          <mxGeometry x="540" y="180" width="90" height="20" as="geometry" />
        </mxCell>
        <mxCell id="kCI0wJCgzJsEVdIwSChr-4" value="2nd Approver" style="swimlane;html=1;startSize=20;fontStyle=0;collapsible=0;horizontal=0;swimlaneLine=1;swimlaneFillColor=#ffffff;strokeWidth=2;whiteSpace=wrap;" vertex="1" parent="1">
          <mxGeometry x="280" y="500" width="460" height="110" as="geometry" />
        </mxCell>
        <mxCell id="kCI0wJCgzJsEVdIwSChr-58" style="edgeStyle=orthogonalEdgeStyle;rounded=0;orthogonalLoop=1;jettySize=auto;html=1;exitX=1;exitY=0.5;exitDx=0;exitDy=0;exitPerimeter=0;entryX=0;entryY=0.5;entryDx=0;entryDy=0;entryPerimeter=0;" edge="1" parent="kCI0wJCgzJsEVdIwSChr-4" source="kCI0wJCgzJsEVdIwSChr-50" target="kCI0wJCgzJsEVdIwSChr-54">
          <mxGeometry relative="1" as="geometry" />
        </mxCell>
        <mxCell id="kCI0wJCgzJsEVdIwSChr-50" value="" style="points=[[0.145,0.145,0],[0.5,0,0],[0.855,0.145,0],[1,0.5,0],[0.855,0.855,0],[0.5,1,0],[0.145,0.855,0],[0,0.5,0]];shape=mxgraph.bpmn.event;html=1;verticalLabelPosition=bottom;labelBackgroundColor=#ffffff;verticalAlign=top;align=center;perimeter=ellipsePerimeter;outlineConnect=0;aspect=fixed;outline=standard;symbol=message;" vertex="1" parent="kCI0wJCgzJsEVdIwSChr-4">
          <mxGeometry x="30" y="25" width="50" height="50" as="geometry" />
        </mxCell>
        <mxCell id="kCI0wJCgzJsEVdIwSChr-57" style="edgeStyle=orthogonalEdgeStyle;rounded=0;orthogonalLoop=1;jettySize=auto;html=1;exitX=1;exitY=0.5;exitDx=0;exitDy=0;exitPerimeter=0;" edge="1" parent="kCI0wJCgzJsEVdIwSChr-4" source="kCI0wJCgzJsEVdIwSChr-54" target="kCI0wJCgzJsEVdIwSChr-55">
          <mxGeometry relative="1" as="geometry" />
        </mxCell>
        <mxCell id="kCI0wJCgzJsEVdIwSChr-54" value="Evaluate request" style="points=[[0.25,0,0],[0.5,0,0],[0.75,0,0],[1,0.25,0],[1,0.5,0],[1,0.75,0],[0.75,1,0],[0.5,1,0],[0.25,1,0],[0,0.75,0],[0,0.5,0],[0,0.25,0]];shape=mxgraph.bpmn.task;whiteSpace=wrap;rectStyle=rounded;size=10;html=1;container=1;expand=0;collapsible=0;taskMarker=manual;" vertex="1" parent="kCI0wJCgzJsEVdIwSChr-4">
          <mxGeometry x="105" y="10" width="120" height="80" as="geometry" />
        </mxCell>
        <mxCell id="kCI0wJCgzJsEVdIwSChr-60" style="edgeStyle=orthogonalEdgeStyle;rounded=0;orthogonalLoop=1;jettySize=auto;html=1;exitX=1;exitY=0.5;exitDx=0;exitDy=0;exitPerimeter=0;entryX=0;entryY=0.5;entryDx=0;entryDy=0;entryPerimeter=0;" edge="1" parent="kCI0wJCgzJsEVdIwSChr-4" source="kCI0wJCgzJsEVdIwSChr-55" target="kCI0wJCgzJsEVdIwSChr-59">
          <mxGeometry relative="1" as="geometry" />
        </mxCell>
        <mxCell id="kCI0wJCgzJsEVdIwSChr-55" value="Document &amp;amp; submit decision" style="points=[[0.25,0,0],[0.5,0,0],[0.75,0,0],[1,0.25,0],[1,0.5,0],[1,0.75,0],[0.75,1,0],[0.5,1,0],[0.25,1,0],[0,0.75,0],[0,0.5,0],[0,0.25,0]];shape=mxgraph.bpmn.task;whiteSpace=wrap;rectStyle=rounded;size=10;html=1;container=1;expand=0;collapsible=0;taskMarker=manual;" vertex="1" parent="kCI0wJCgzJsEVdIwSChr-4">
          <mxGeometry x="250" y="10" width="120" height="80" as="geometry" />
        </mxCell>
        <mxCell id="kCI0wJCgzJsEVdIwSChr-59" value="" style="points=[[0.145,0.145,0],[0.5,0,0],[0.855,0.145,0],[1,0.5,0],[0.855,0.855,0],[0.5,1,0],[0.145,0.855,0],[0,0.5,0]];shape=mxgraph.bpmn.event;html=1;verticalLabelPosition=bottom;labelBackgroundColor=#ffffff;verticalAlign=top;align=center;perimeter=ellipsePerimeter;outlineConnect=0;aspect=fixed;outline=end;symbol=terminate2;" vertex="1" parent="kCI0wJCgzJsEVdIwSChr-4">
          <mxGeometry x="390" y="25" width="50" height="50" as="geometry" />
        </mxCell>
        <mxCell id="kCI0wJCgzJsEVdIwSChr-61" value="Task completed" style="text;html=1;strokeColor=none;fillColor=none;align=center;verticalAlign=middle;whiteSpace=wrap;rounded=0;" vertex="1" parent="kCI0wJCgzJsEVdIwSChr-4">
          <mxGeometry x="370" y="75" width="80" height="30" as="geometry" />
        </mxCell>
        <mxCell id="kCI0wJCgzJsEVdIwSChr-62" value="" style="dashed=1;dashPattern=8 4;endArrow=blockThin;endFill=1;startArrow=oval;startFill=0;endSize=6;startSize=4;html=1;rounded=0;exitX=0.25;exitY=0;exitDx=0;exitDy=0;exitPerimeter=0;entryX=0.5;entryY=1;entryDx=0;entryDy=0;entryPerimeter=0;" edge="1" parent="1" source="kCI0wJCgzJsEVdIwSChr-17" target="kCI0wJCgzJsEVdIwSChr-8">
          <mxGeometry width="160" relative="1" as="geometry">
            <mxPoint x="430" y="200" as="sourcePoint" />
            <mxPoint x="330" y="210" as="targetPoint" />
            <Array as="points">
              <mxPoint x="170" y="200" />
              <mxPoint x="125" y="200" />
            </Array>
          </mxGeometry>
        </mxCell>
        <mxCell id="kCI0wJCgzJsEVdIwSChr-63" value="" style="dashed=1;dashPattern=8 4;endArrow=blockThin;endFill=1;startArrow=oval;startFill=0;endSize=6;startSize=4;html=1;rounded=0;exitX=0.25;exitY=1;exitDx=0;exitDy=0;exitPerimeter=0;entryX=0.5;entryY=0;entryDx=0;entryDy=0;entryPerimeter=0;" edge="1" parent="1" source="kCI0wJCgzJsEVdIwSChr-28" target="kCI0wJCgzJsEVdIwSChr-50">
          <mxGeometry width="160" relative="1" as="geometry">
            <mxPoint x="350" y="460" as="sourcePoint" />
            <mxPoint x="510" y="460" as="targetPoint" />
            <Array as="points">
              <mxPoint x="428" y="450" />
              <mxPoint x="335" y="450" />
            </Array>
          </mxGeometry>
        </mxCell>
        <mxCell id="kCI0wJCgzJsEVdIwSChr-65" value="" style="dashed=1;dashPattern=8 4;endArrow=blockThin;endFill=1;startArrow=oval;startFill=0;endSize=6;startSize=4;html=1;rounded=0;exitX=0.5;exitY=1;exitDx=0;exitDy=0;exitPerimeter=0;entryX=0.75;entryY=0;entryDx=0;entryDy=0;entryPerimeter=0;" edge="1" parent="1" source="kCI0wJCgzJsEVdIwSChr-11" target="kCI0wJCgzJsEVdIwSChr-17">
          <mxGeometry width="160" relative="1" as="geometry">
            <mxPoint x="330" y="290" as="sourcePoint" />
            <mxPoint x="490" y="290" as="targetPoint" />
            <Array as="points">
              <mxPoint x="380" y="200" />
              <mxPoint x="230" y="200" />
            </Array>
          </mxGeometry>
        </mxCell>
        <mxCell id="kCI0wJCgzJsEVdIwSChr-66" value="" style="dashed=1;dashPattern=8 4;endArrow=blockThin;endFill=1;startArrow=oval;startFill=0;endSize=6;startSize=4;html=1;rounded=0;exitX=0.5;exitY=0;exitDx=0;exitDy=0;exitPerimeter=0;entryX=0.75;entryY=1;entryDx=0;entryDy=0;entryPerimeter=0;" edge="1" parent="1" source="kCI0wJCgzJsEVdIwSChr-55" target="kCI0wJCgzJsEVdIwSChr-28">
          <mxGeometry width="160" relative="1" as="geometry">
            <mxPoint x="330" y="460" as="sourcePoint" />
            <mxPoint x="490" y="460" as="targetPoint" />
            <Array as="points">
              <mxPoint x="590" y="450" />
              <mxPoint x="483" y="450" />
            </Array>
          </mxGeometry>
        </mxCell>
      </root>
    </mxGraphModel>
  </diagram>
</mxfile>
